<svg width="1024" height="1024" viewBox="0 0 1024 1024" xmlns="http://www.w3.org/2000/svg">
  <defs>
    <linearGradient id="lime" x1="0" y1="0" x2="1" y2="1">
      <stop offset="0" stop-color="#EAFF8C"/>
      <stop offset="0.5" stop-color="#C6FF00"/>
      <stop offset="1" stop-color="#9BE000"/>
    </linearGradient>
    <linearGradient id="white" x1="0.2" y1="0" x2="0.4" y2="1">
      <stop offset="0" stop-color="#ffffff"/>
      <stop offset="1" stop-color="#DFE8D4"/>
    </linearGradient>
    <filter id="shadow" x="-40%" y="-40%" width="180%" height="180%">
      <feDropShadow dx="0" dy="16" stdDev="22" flood-color="#000000" flood-opacity="0.5"/>
    </filter>
  </defs>

  <g filter="url(#shadow)">
    <!-- phone handset -->
    <path fill="url(#white)" transform="rotate(-10 512 540)"
          d="M372 392
             c 22 -22 58 -22 80 0
             l 50 50 c 20 20 22 52 4 74
             l -20 25 c -10 12 -9 30 2 41
             l 82 82 c 11 11 29 12 41 2
             l 25 -20 c 22 -18 54 -16 74 4
             l 50 50 c 22 22 22 58 0 80
             l -32 32 c -28 28 -70 36 -106 20
             C 535 776 432 673 376 540
             c -16 -36 -8 -78 20 -106 Z"/>

    <!-- wildcard asterisk badge (glob = pattern match) -->
    <g transform="translate(690 348)">
      <circle r="128" fill="#0a0c07"/>
      <circle r="128" fill="none" stroke="url(#lime)" stroke-width="6" opacity="0.5"/>
      <g fill="url(#lime)">
        <rect x="-19" y="-70" width="38" height="140" rx="19"/>
        <rect x="-19" y="-70" width="38" height="140" rx="19" transform="rotate(60)"/>
        <rect x="-19" y="-70" width="38" height="140" rx="19" transform="rotate(120)"/>
        <circle r="21"/>
      </g>
    </g>
  </g>
</svg>
